<?xml version="1.0" encoding="UTF-8"?>
<svg width="42px" height="42px" viewBox="0 0 42 42" version="1.1" xmlns="http://www.w3.org/2000/svg" xmlns:xlink="http://www.w3.org/1999/xlink">
    <title>MediaCenter</title>
    <g id="MediaCenter" stroke="none" stroke-width="1" fill="none" fill-rule="evenodd">
        <path d="M32.4163404,27.2839285 C32.4163404,28.3035992 31.5855465,29.1330723 30.5671966,29.1330723 L23.8997123,29.1330723 L22.1892542,26.1718006 L22.1892542,26.1704797 C21.7322515,25.3793103 20.913345,24.9077787 20.0006604,24.9077787 C19.086655,24.9077787 18.2677485,25.3793103 17.8107458,26.1718006 L16.1002877,29.1330723 L9.43412425,29.1330723 C8.41445351,29.1330723 7.58365961,28.3035992 7.58365961,27.2839285 L7.58365961,11.4341243 C7.58365961,10.4144535 8.41445351,9.58498042 9.43412425,9.58498042 L30.5671966,9.58498042 C31.5855465,9.58498042 32.4163404,10.4144535 32.4163404,11.4341243 L32.4163404,27.2839285 Z M23.3885561,32.3611491 C23.3066654,32.5024765 23.0636351,32.8326808 22.5722911,32.8326808 L17.4277089,32.8326808 C16.9363649,32.8326808 16.6946554,32.5024765 16.6114439,32.3611491 C16.5308741,32.2185009 16.3670928,31.8433888 16.6114439,31.4167649 L17.2863814,30.2491627 C17.2903439,30.2425586 17.2943063,30.2372753 17.296948,30.2306713 L19.1830747,26.96297 C19.4300675,26.5389877 19.8368791,26.4914383 20.0006604,26.4914383 C20.1644417,26.4914383 20.5699325,26.5389877 20.8169253,26.96297 L22.703052,30.2306713 C22.7056937,30.2372753 22.7096561,30.2425586 22.7136186,30.2491627 L23.3885561,31.4167649 C23.634228,31.8433888 23.4704467,32.2185009 23.3885561,32.3611491 L23.3885561,32.3611491 Z M30.5671966,8 L9.43412425,8 C7.54007264,8 6,9.54007264 6,11.4341243 L6,27.2839285 C6,29.1779801 7.54007264,30.7180527 9.43412425,30.7180527 L15.2008114,30.7180527 C14.7939997,31.4907307 14.799283,32.3915279 15.2391151,33.1523185 C15.6961177,33.9448087 16.5150243,34.4176612 17.4277089,34.4176612 L22.5722911,34.4176612 C23.4849757,34.4176612 24.3038823,33.9448087 24.7608849,33.1523185 C25.200717,32.3915279 25.2060003,31.4907307 24.7991886,30.7180527 L30.5671966,30.7180527 C32.4599274,30.7180527 34,29.1779801 34,27.2839285 L34,11.4341243 C34,9.54007264 32.4599274,8 30.5671966,8 L30.5671966,8 Z" id="Monitor" fill="#000000"></path>
    </g>
</svg>