<?xml version="1.0" encoding="UTF-8"?>
<svg width="42px" height="42px" viewBox="0 0 42 42" version="1.1" xmlns="http://www.w3.org/2000/svg" xmlns:xlink="http://www.w3.org/1999/xlink">
    <title>Humidifier</title>
    <g id="Humidifier" stroke="none" stroke-width="1" fill="none" fill-rule="evenodd">
        <path d="M22.3953488,31.6718845 C22.3953488,32.4399513 21.7702326,33.0633099 21,33.0633099 C20.2297674,33.0633099 19.6046512,32.4399513 19.6046512,31.6718845 C19.6046512,30.9038177 20.2297674,30.2804592 21,30.2804592 C21.7702326,30.2804592 22.3953488,30.9038177 22.3953488,31.6718845 L22.3953488,31.6718845 Z M21,35.0113053 C19.1539535,35.0113053 17.6511628,33.5127402 17.6511628,31.6718845 C17.6511628,29.8310288 19.1539535,28.3324637 21,28.3324637 C22.8460465,28.3324637 24.3488372,29.8310288 24.3488372,31.6718845 C24.3488372,33.5127402 22.8460465,35.0113053 21,35.0113053 L21,35.0113053 Z M21,26.6627533 C18.2302326,26.6627533 15.9767442,28.9099052 15.9767442,31.6718845 C15.9767442,34.4338638 18.2302326,36.6810157 21,36.6810157 C23.7697674,36.6810157 26.0232558,34.4338638 26.0232558,31.6718845 C26.0232558,28.9099052 23.7697674,26.6627533 21,26.6627533 L21,26.6627533 Z M31.3255814,37.3822941 C31.3255814,38.4550831 30.4493023,39.3288982 29.372093,39.3288982 L12.627907,39.3288982 C11.5506977,39.3288982 10.6744186,38.4550831 10.6744186,37.3822941 L10.6744186,15.1194887 C10.6744186,14.0453083 11.5506977,13.1714932 12.627907,13.1714932 L29.372093,13.1714932 C30.4493023,13.1714932 31.3255814,14.0453083 31.3255814,15.1194887 L31.3255814,37.3822941 Z M29.372093,11.5003913 C31.3730233,11.5003913 33,13.1241847 33,15.1194887 L33,15.1194887 L33,37.3822941 C33,39.3762066 31.3730233,41 29.372093,41 L29.372093,41 L12.627907,41 C10.6269767,41 9,39.3762066 9,37.3822941 L9,37.3822941 L9,15.1194887 C9,13.1241847 10.6269767,11.5003913 12.627907,11.5003913 L12.627907,11.5003913 Z M15.2249963,1.59626739 C15.4370893,1.18579691 15.9408102,1.025783 16.3524381,1.2344968 C16.764066,1.44738488 16.9259265,1.94968942 16.7138335,2.3601599 C16.3831358,3.00160698 16.3426707,3.57765707 16.5742986,4.34989814 C16.6273218,4.52660916 16.7180195,4.69218877 16.8059265,4.86333409 C17.0431358,5.32389588 17.3361591,5.89577169 17.3138335,6.67636131 C17.2817404,7.86602998 16.8296474,8.61322538 16.3454614,9.24354106 C16.1808102,9.45921199 15.9324381,9.57330887 15.67988,9.57330887 C15.5026707,9.57330887 15.324066,9.51626043 15.171973,9.40077213 C14.8049963,9.11970421 14.7352288,8.59513685 15.0156939,8.23058342 C15.4063916,7.71993032 15.6212753,7.31502554 15.6408102,6.62905285 C15.6505777,6.27563081 15.504066,5.98899719 15.3156939,5.6272266 C15.1789497,5.35868151 15.0505777,5.09848497 14.9696474,4.82715703 C14.6152288,3.64722834 14.6961591,2.61896501 15.2249963,1.59626739 Z M25.0803451,1.59626739 C25.2924381,1.18579691 25.7975544,1.025783 26.207787,1.2344968 C26.6194149,1.44738488 26.7812753,1.94968942 26.5705777,2.3601599 C26.2384846,3.00160698 26.1980195,3.57765707 26.4296474,4.34989814 C26.4826707,4.52521773 26.5733684,4.69079735 26.6626707,4.86333409 C26.8984846,5.32250445 27.1929032,5.89438027 27.1705777,6.67636131 C27.1384846,7.86602998 26.6863916,8.61322538 26.2022056,9.24354106 C26.0375544,9.45921199 25.7891823,9.57330887 25.5366242,9.57330887 C25.3594149,9.57330887 25.1808102,9.51626043 25.0287172,9.40077213 C24.6603451,9.11970421 24.591973,8.59513685 24.8724381,8.23058342 C25.2631358,7.71993032 25.4780195,7.31502554 25.4975544,6.62905285 C25.5073218,6.27563081 25.3594149,5.98760577 25.1724381,5.62583518 C25.0356939,5.35729009 24.9073218,5.0998764 24.8263916,4.82715703 C24.471973,3.64722834 24.5529032,2.61896501 25.0803451,1.59626739 Z M20.1533684,0.452515757 C20.364066,0.0434367071 20.8705777,-0.117968632 21.2808102,0.0921365941 C21.6910428,0.302241821 21.8529032,0.805937794 21.6422056,1.21640827 C21.3115079,1.85924678 21.2696474,2.43529687 21.5012753,3.20614651 C21.5542986,3.3814661 21.6449963,3.54704572 21.7342986,3.72097388 C21.9701125,4.18153567 22.2645311,4.75202006 22.2436009,5.53121825 C22.2101125,6.72366977 21.7566242,7.47086518 21.2738335,8.10257228 C21.1091823,8.31685179 20.8594149,8.42816581 20.6082521,8.42816581 C20.4310428,8.42816581 20.2510428,8.3725088 20.0989497,8.2570205 C19.731973,7.977344 19.6622056,7.45277665 19.944066,7.08544036 C20.3347637,6.57757011 20.5496474,6.17127391 20.5691823,5.48669264 C20.5789497,5.13466203 20.4310428,4.84663699 20.244066,4.48208355 C20.1073218,4.21632131 19.9789497,3.95473334 19.8966242,3.6834054 C19.5436009,2.50347671 19.6245311,1.47660481 20.1533684,0.452515757 Z" id="Speaker" fill="#000000"></path>
    </g>
</svg>