<?xml version="1.0" encoding="UTF-8"?>
<svg width="42px" height="42px" viewBox="0 0 42 42" version="1.1" xmlns="http://www.w3.org/2000/svg" xmlns:xlink="http://www.w3.org/1999/xlink">
    <title>AIrCleaner</title>
    <g id="AIrCleaner" stroke="none" stroke-width="1" fill="none" fill-rule="evenodd">
        <path d="M26.7708433,21 C26.7708433,20.446403 26.3222963,19.9995236 25.7703668,19.9995236 L4.99880896,19.9995236 C4.44687947,19.9995236 4,20.446403 4,21 C4,21.553597 4.44687947,22.0004764 4.99880896,22.0004764 L25.7703668,22.0004764 C26.3222963,22.0004764 26.7708433,21.553597 26.7708433,21 M32.7370176,25.1136255 L18.1000476,25.1136255 C17.5481182,25.1136255 17.0995712,25.5588375 17.0995712,26.1124345 C17.0995712,26.6660314 17.5481182,27.1129109 18.1000476,27.1129109 L32.7370176,27.1129109 C34.3611243,27.1129109 35.6817532,28.4335398 35.6817532,30.0576465 C35.6817532,31.6784183 34.3611243,32.9990472 32.7370176,32.9990472 L30.9044783,32.9990472 C30.3525488,32.9990472 29.9056694,33.4475941 29.9056694,34.001191 C29.9056694,34.5531205 30.3525488,35 30.9044783,35 L32.7370176,35 C35.4633159,35 37.6810386,32.7822773 37.6810386,30.0576465 C37.6810386,27.3313483 35.4633159,25.1136255 32.7370176,25.1136255 M10.5014293,15.8875655 C10.5014293,15.3339686 10.9499762,14.8870891 11.5019057,14.8870891 L26.8442115,14.8870891 C28.4683182,14.8870891 29.7889471,13.5664602 29.7889471,11.9423535 C29.7889471,10.3215817 28.4683182,9.00095283 26.8442115,9.00095283 L23.3442115,9.00095283 C22.792282,9.00095283 22.3454026,8.55240591 22.3454026,7.99880896 C22.3454026,7.44687947 22.792282,7 23.3442115,7 L26.8442115,7 C29.5705098,7 31.7882325,9.21772273 31.7882325,11.9423535 C31.7882325,14.6686517 29.5705098,16.8863745 26.8442115,16.8863745 L11.5019057,16.8863745 C10.9499762,16.8863745 10.5014293,16.4411625 10.5014293,15.8875655" id="Windy" fill="#000000"></path>
    </g>
</svg>