<?xml version="1.0" encoding="UTF-8"?>
<svg width="42px" height="42px" viewBox="0 0 42 42" version="1.1" xmlns="http://www.w3.org/2000/svg" xmlns:xlink="http://www.w3.org/1999/xlink">
    <title>Alarm</title>
    <g id="Alarm" stroke="none" stroke-width="1" fill="none" fill-rule="evenodd">
        <path d="M21,18.5208333 C19.59125,18.5208333 18.4479167,19.6641667 18.4479167,21.0729167 C18.4479167,22.1739583 19.1479167,23.1029167 20.125,23.4616667 L20.125,33.9820833 C20.125,34.46625 20.5158333,34.8570833 21,34.8570833 C21.4841667,34.8570833 21.875,34.46625 21.875,33.9820833 L21.875,23.4616667 C22.8520833,23.1029167 23.5520833,22.1739583 23.5520833,21.0729167 C23.5520833,19.6641667 22.40875,18.5208333 21,18.5208333 M21,12.8333333 C16.4966667,12.8333333 12.8333333,16.4966667 12.8333333,21 C12.8333333,23.6629167 14.1341667,26.1610417 16.314375,27.6820833 C16.4660417,27.7870833 16.6410417,27.8395833 16.813125,27.8395833 C17.0902083,27.8395833 17.3614583,27.7083333 17.5320833,27.4647917 C17.8091667,27.068125 17.7114583,26.5227083 17.3147917,26.245625 C15.6041667,25.0527083 14.5833333,23.09125 14.5833333,21 C14.5833333,17.460625 17.4620833,14.5833333 21,14.5833333 C24.5379167,14.5833333 27.4166667,17.460625 27.4166667,21 C27.4166667,23.0475 26.4235417,24.9841667 24.7625,26.1814583 C24.3702083,26.4629167 24.28125,27.0097917 24.5627083,27.4020833 C24.845625,27.794375 25.3925,27.8847917 25.7847917,27.601875 C27.9022917,26.0764583 29.1666667,23.6089583 29.1666667,21 C29.1666667,16.4966667 25.5033333,12.8333333 21,12.8333333 M35,21 C35,25.510625 32.8066667,29.763125 29.1345833,32.3735417 C28.7408333,32.6535417 28.1939583,32.5616667 27.9139583,32.1664583 C27.6339583,31.7727083 27.7258333,31.2258333 28.1195833,30.9472917 C31.3322917,28.665 33.25,24.94625 33.25,21 C33.25,14.245 27.755,8.75 21,8.75 C14.245,8.75 8.75,14.245 8.75,21 C8.75,24.9491667 10.6691667,28.6795833 13.881875,30.9779167 C14.275625,31.2579167 14.3660417,31.8047917 14.0845833,32.1985417 C13.9139583,32.43625 13.645625,32.5645833 13.3729167,32.5645833 C13.1964583,32.5645833 13.0185417,32.510625 12.8639583,32.40125 C9.191875,29.7747917 7,25.5120833 7,21 C7,13.2795833 13.2810417,7 21,7 C28.7189583,7 35,13.2795833 35,21" id="Hotspot" fill="#000000"></path>
    </g>
</svg>