<?xml version="1.0" encoding="UTF-8"?>
<svg width="42px" height="42px" viewBox="0 0 42 42" version="1.1" xmlns="http://www.w3.org/2000/svg" xmlns:xlink="http://www.w3.org/1999/xlink">
    <title>Bra</title>
    <g id="Bra" stroke="none" stroke-width="1" fill="none" fill-rule="evenodd">
        <path d="M33.2513673,22.5522896 C33.2513673,22.874598 32.9888536,23.1356533 32.6680035,23.1356533 L9.33345487,23.1356533 C9.01114641,23.1356533 8.74863274,22.874598 8.74863274,22.5522896 L8.74863274,20.0000733 C8.74863274,16.5771867 10.1253711,13.4022297 12.6236262,11.0600243 C14.9191625,8.90887063 17.8636908,7.74943524 20.9919787,7.74943524 C21.2647013,7.74943524 21.5417991,7.7581857 21.8174384,7.77568661 C28.2286057,8.19133326 33.2513673,13.7580815 33.2513673,20.4492634 L33.2513673,22.5522896 Z M23.1883431,33.2715979 C24.4104901,33.2715979 25.4488775,34.0678893 25.8163967,35.1675299 L16.1836033,35.1675299 C16.5511225,34.0678893 17.5909683,33.2715979 18.8131153,33.2715979 L23.1883431,33.2715979 Z M21.9297359,6.02997069 C18.021199,5.77912429 14.2803792,7.10919356 11.4262722,9.7839162 C8.61154227,12.4207202 7,16.1440391 7,20.0000733 L7,22.5522896 C7,23.8386066 8.04567946,24.8857444 9.33345487,24.8857444 L20.1256836,24.8857444 L20.1256836,31.5215067 L18.8131153,31.5215067 C16.3206938,31.5215067 14.2920465,33.550154 14.2920465,36.0425755 C14.2920465,36.5267674 14.6829002,36.9176211 15.167092,36.9176211 L26.8343664,36.9176211 C27.3170998,36.9176211 27.7079535,36.5267674 27.7079535,36.0425755 C27.7079535,33.550154 25.6807646,31.5215067 23.1883431,31.5215067 L21.8743164,31.5215067 L21.8743164,24.8857444 L32.6680035,24.8857444 C33.9528621,24.8857444 35,23.8386066 35,22.5522896 L35,20.4492634 C35,12.8378253 29.259701,6.50395371 21.9297359,6.02997069 L21.9297359,6.02997069 Z" id="Bed-lamp" fill="#000000"></path>
    </g>
</svg>