<?xml version="1.0" encoding="UTF-8"?>
<svg width="42px" height="42px" viewBox="0 0 42 42" version="1.1" xmlns="http://www.w3.org/2000/svg" xmlns:xlink="http://www.w3.org/1999/xlink">
    <title>Camera</title>
    <g id="Camera" stroke="none" stroke-width="1" fill="none" fill-rule="evenodd">
        <path d="M24.3554885,18.3364781 C24.3554885,20.0029718 23.0029718,21.3554885 21.3364781,21.3554885 C19.6699844,21.3554885 18.3174678,20.0029718 18.3174678,18.3364781 C18.3174678,16.6699844 19.6699844,15.3174678 21.3364781,15.3174678 C23.0029718,15.3174678 24.3554885,16.6699844 24.3554885,18.3364781 L24.3554885,18.3364781 Z M21.3364781,29.8630596 C14.9814614,29.8630596 9.8114062,24.6914949 9.8114062,18.3364781 C9.8114062,11.9814614 14.9814614,6.80989669 21.3364781,6.80989669 C27.6914949,6.80989669 32.8615501,11.9814614 32.8615501,18.3364781 C32.8615501,24.6914949 27.6914949,29.8630596 21.3364781,29.8630596 L21.3364781,29.8630596 Z M27.9722628,35.1901033 L14.7006934,35.1901033 L17.1279777,30.9831124 C18.4533233,31.4253974 19.8647106,31.6729563 21.3364781,31.6729563 C22.8082457,31.6729563 24.219633,31.4253974 25.5449785,30.9831124 L27.9722628,35.1901033 Z M34.6729563,18.3364781 C34.6729563,10.982169 28.6907873,5 21.3364781,5 C13.982169,5 8,10.982169 8,18.3364781 C8,23.5729516 11.0401434,28.1014671 15.4418605,30.282702 L13.0009906,34.510826 C12.7005991,35.0316053 12.7005991,35.6520119 13.0009906,36.1712817 C13.3013821,36.6905514 13.838766,37 14.439549,37 L28.2334072,37 C28.8341903,37 29.3715741,36.6905514 29.6719657,36.1712817 C29.9723572,35.6520119 29.9723572,35.0316053 29.6719657,34.510826 L27.2310958,30.282702 C31.6328129,28.1014671 34.6729563,23.5729516 34.6729563,18.3364781 L34.6729563,18.3364781 Z" id="Web-cam" fill="#000000"></path>
    </g>
</svg>