<?xml version="1.0" encoding="UTF-8"?>
<svg width="42px" height="42px" viewBox="0 0 42 42" version="1.1" xmlns="http://www.w3.org/2000/svg" xmlns:xlink="http://www.w3.org/1999/xlink">
    <title>default</title>
    <g id="default" stroke="none" stroke-width="1" fill="none" fill-rule="evenodd">
        <path d="M21.9981699,35.0026283 L30.699753,35.0026283 L30.699753,22.3110836 L21.9981699,22.3110836 L21.9981699,35.0026283 Z M11.2982728,35.0026283 L19.9998558,35.0026283 L19.9998558,22.3110836 L11.2982728,22.3110836 L11.2982728,35.0026283 Z M7.26664488,20.3111028 L20.9998462,7.07289674 L34.7330475,20.3111028 L7.26664488,20.3111028 Z M35.999702,35.0026283 L32.6997337,35.0026283 L32.6997337,22.3110836 L35.1763766,22.3110836 C35.9230361,22.3110836 36.5880297,21.8627546 36.8663604,21.1694279 C37.1463577,20.4761012 36.978026,19.6944421 36.4396978,19.1761137 L22.264834,5.51457839 C21.5515076,4.82791832 20.4398516,4.82958497 19.736525,5.51291174 L5.55999462,19.1761137 C5.02166646,19.6944421 4.85500139,20.4761012 5.1349987,21.1694279 C5.41332936,21.8627546 6.07665632,22.3110836 6.82331581,22.3110836 L9.30162532,22.3110836 L9.30162532,35.0026283 L6,35.0026283 C5.44832902,35.0026283 5,35.4492906 5,36.0026187 C5,36.5559467 5.44832902,37.0026091 6,37.0026091 L35.999702,37.0026091 C36.5513634,37.0026091 37,36.5559467 37,36.0026187 C37,35.4492906 36.5513634,35.0026283 35.999702,35.0026283 L35.999702,35.0026283 Z" id="Bank" fill="#000000"></path>
    </g>
</svg>