<?xml version="1.0" encoding="UTF-8"?>
<svg width="42px" height="42px" viewBox="0 0 42 42" version="1.1" xmlns="http://www.w3.org/2000/svg" xmlns:xlink="http://www.w3.org/1999/xlink">
    <title>Fan</title>
    <g id="Fan" stroke="none" stroke-width="1" fill="none" fill-rule="evenodd">
        <path d="M23.2859329,25.9693821 C25.8371052,26.9815199 25.8758575,29.0859802 25.9085791,31.1262257 C25.9300213,32.4013652 25.9496766,33.6062592 26.8155162,34.2593521 C27.1614947,34.5136429 27.5829675,34.645423 28.0121461,34.6332501 C28.3315451,34.628783 28.6487107,34.5821016 28.9558252,34.494881 C31.327196,33.8561945 33.5367453,31.7159972 34.867277,28.7688147 C36.1721229,25.8800397 36.3636506,22.8372608 35.3689346,20.8287319 C34.2473524,18.5541859 30.569014,18.3374189 24.4406834,20.1730703 C23.9878291,19.4397925 23.3278121,18.8573917 22.5442792,18.4992403 C22.1364312,15.7753021 23.9402543,14.6912437 25.690472,13.643369 C26.7815661,12.9894943 27.8136942,12.3718032 27.9467027,11.2964557 C27.991709,10.5403956 27.6710814,9.8083463 27.0852186,9.32857758 C25.3510825,7.59354809 22.3977577,6.74725217 19.1813195,7.06620455 C16.0229538,7.37901465 13.286396,8.73523234 12.0382826,10.6062856 C10.6383988,12.7124211 12.2934668,16.0096026 16.9403886,20.4042438 C16.5944101,21.0312041 16.4106998,21.7344405 16.4060094,22.4502965 C16.4129334,22.5954779 16.4277866,22.740771 16.4495638,22.8847239 C14.2971936,24.5969711 12.4545065,23.578356 10.6697803,22.5872137 C9.55300024,21.9669541 8.49384603,21.3832132 7.49879501,21.8045743 C6.81956938,22.1448571 6.34404443,22.7901327 6.22008185,23.5400505 C5.58753762,25.9123147 6.33745543,28.8965743 8.22559546,31.5241344 C10.0761,34.0979774 12.6158812,35.7853204 14.8546902,35.9283799 C14.9171182,35.9318419 14.9794345,35.9345222 15.0418625,35.9345222 C17.4935298,35.9345222 19.4574992,32.853326 20.8896579,26.7842965 C21.7517004,26.7590573 22.5866052,26.4750601 23.2859329,25.9693821 Z M18.3119062,22.4502965 C18.3119062,21.1014495 19.4051222,20.0085686 20.7535224,20.0085686 C22.1023694,20.0085686 23.1955854,21.1014495 23.1955854,22.4502965 C23.1955854,23.7986967 22.1023694,24.8923594 20.7535224,24.8923594 C19.4055689,24.8905726 18.3132463,23.79825 18.3119062,22.4502965 Z M33.6605962,21.6737993 C34.3974477,23.1617971 34.190285,25.6391503 33.1310191,27.9843884 C32.0317725,30.4174054 30.286692,32.1627093 28.4615383,32.6544275 C28.3013921,32.6945199 28.1386772,32.7242263 27.9746222,32.7425415 C27.8393802,32.2042535 27.785328,31.6488788 27.8145877,31.0948442 C27.7827594,29.1583476 27.7221183,26.0567143 24.5811744,24.4696582 C24.9183303,23.8497336 25.0967917,23.1561015 25.1015939,22.4502965 C25.0945582,22.2919371 25.0789232,22.1340244 25.054019,21.9773401 C30.6662855,20.3108809 33.2039448,20.7458668 33.6605962,21.6737993 Z M13.6257854,11.6628713 C14.5501443,10.2765005 16.8046998,9.21645287 19.370167,8.9629438 C22.02654,8.69904867 24.4031596,9.34030378 25.7389403,10.6760844 C25.8522934,10.7939047 25.9583875,10.918649 26.0561058,11.0499824 C25.6581971,11.4338197 25.2053427,11.7566808 24.712396,12.0079563 C23.0516324,13.0025606 20.3976046,14.6035765 20.5969499,18.1188651 C19.7270899,18.1493532 18.8868246,18.4429546 18.1871619,18.9608055 C13.9512151,14.9411791 13.0289781,12.5593106 13.6257854,11.6628713 Z M14.9750791,34.0263918 C13.3177775,33.9208561 11.2770853,32.5017637 9.77378765,30.4126032 C8.21509773,28.2431463 7.57462437,25.8581508 8.06154047,24.0337789 C8.10598832,23.8741911 8.16272075,23.7179535 8.23073265,23.5670765 C8.76254331,23.7302381 9.27123663,23.9609649 9.7440813,24.2536729 C11.4371199,25.1937784 14.1501136,26.6888118 17.0891437,24.7676151 C17.5519374,25.5013396 18.2224521,26.0802784 19.016036,26.4305006 C17.6610468,32.1091038 16.0234005,34.064809 14.9746324,34.0259451 L14.9750791,34.0263918 Z" id="Fill-3" fill="#000000"></path>
    </g>
</svg>