<?xml version="1.0" encoding="UTF-8"?>
<svg width="42px" height="42px" viewBox="0 0 42 42" version="1.1" xmlns="http://www.w3.org/2000/svg" xmlns:xlink="http://www.w3.org/1999/xlink">
    <title>Laptop</title>
    <g id="Laptop" stroke="none" stroke-width="1" fill="none" fill-rule="evenodd">
        <path d="M35.9999766,31.5468984 L6.00002344,31.5468984 C5.17307812,31.5468984 4.49997656,30.8737969 4.49997656,30.0469219 L16.9394531,30.0469219 L17.46975,30.5771484 C17.610375,30.7177734 17.8007812,30.796875 17.9999766,30.796875 L24.0000234,30.796875 C24.1992188,30.796875 24.389625,30.7177734 24.53025,30.5771484 L25.0605469,30.0469219 L37.5000234,30.0469219 C37.5000234,30.8737969 36.8269219,31.5468984 35.9999766,31.5468984 Z M7.5,12.0469219 C7.5,11.2199766 8.17310156,10.546875 8.99997656,10.546875 L33.0000234,10.546875 C33.8268984,10.546875 34.5,11.2199766 34.5,12.0469219 L34.5,28.546875 L7.5,28.546875 L7.5,12.0469219 Z M38.2499766,28.546875 L35.9999766,28.546875 L35.9999766,12.0469219 C35.9999766,10.3923281 34.6545469,9.04689844 33.0000234,9.04689844 L8.99997656,9.04689844 C7.34545312,9.04689844 6.00002344,10.3923281 6.00002344,12.0469219 L6.00002344,28.546875 L3.75002344,28.546875 C3.33546094,28.546875 3,28.8823359 3,29.2968984 L3,30.0469219 C3,31.7014453 4.34542969,33.046875 6.00002344,33.046875 L35.9999766,33.046875 C37.6545703,33.046875 39,31.7014453 39,30.0469219 L39,29.2968984 C39,28.8823359 38.6645391,28.546875 38.2499766,28.546875 L38.2499766,28.546875 Z" id="Fill-1" fill="#000000"></path>
    </g>
</svg>