<?xml version="1.0" encoding="UTF-8"?>
<svg width="42px" height="42px" viewBox="0 0 42 42" version="1.1" xmlns="http://www.w3.org/2000/svg" xmlns:xlink="http://www.w3.org/1999/xlink">
    <title>Printer</title>
    <g id="Printer" stroke="none" stroke-width="1" fill="none" fill-rule="evenodd">
        <path d="M31.9688193,21.0007548 C31.9688193,21.5019105 31.5627624,21.9064579 31.0616067,21.9064579 L26.765555,21.9064579 C26.2659088,21.9064579 25.8583424,21.5019105 25.8583424,21.0007548 C25.8583424,20.499599 26.2659088,20.0950517 26.765555,20.0950517 L31.0616067,20.0950517 C31.5627624,20.0950517 31.9688193,20.499599 31.9688193,21.0007548 L31.9688193,21.0007548 Z M35.1901033,29.3875655 C35.1901033,30.7370631 34.089674,31.8359828 32.7401764,31.8359828 L28.6146988,31.8359828 L28.6146988,29.3875655 C28.6146988,28.8879192 28.2086419,28.4803528 27.7089957,28.4803528 L14.2910043,28.4803528 C13.7913581,28.4803528 13.3837917,28.8879192 13.3837917,29.3875655 L13.3837917,31.8359828 L9.25982358,31.8359828 C7.91032596,31.8359828 6.80989669,30.7370631 6.80989669,29.3875655 L6.80989669,19.3236945 C6.80989669,17.9726874 7.91032596,16.8752771 9.25982358,16.8752771 L32.7401764,16.8752771 C34.089674,16.8752771 35.1901033,17.9726874 35.1901033,19.3236945 L35.1901033,29.3875655 Z M26.8017831,32.7401764 L26.8017831,35.1901033 L15.1982169,35.1901033 L15.1982169,32.7401764 L15.1982169,30.2932686 L26.8017831,30.2932686 L26.8017831,32.7401764 Z M11.8425869,7.58276334 C11.8425869,7.15859239 12.1882636,6.8114062 12.6139441,6.8114062 L29.3860559,6.8114062 C29.8117364,6.8114062 30.1574131,7.15859239 30.1574131,7.58276334 L30.1574131,15.0623614 L11.8425869,15.0623614 L11.8425869,7.58276334 Z M32.7401764,15.0623614 L31.9688193,15.0623614 L31.9688193,7.58276334 C31.9688193,6.15779046 30.8095193,5 29.3860559,5 L12.6139441,5 C11.1889712,5 10.0311807,6.15779046 10.0311807,7.58276334 L10.0311807,15.0623614 L9.25982358,15.0623614 C6.90952403,15.0623614 5,16.9749045 5,19.3236945 L5,29.3875655 C5,31.734846 6.90952403,33.647389 9.25982358,33.647389 L13.3837917,33.647389 L13.3837917,36.0958064 C13.3837917,36.5969621 13.7913581,37.0015095 14.2910043,37.0015095 L27.7089957,37.0015095 C28.2086419,37.0015095 28.6146988,36.5969621 28.6146988,36.0958064 L28.6146988,33.647389 L32.7401764,33.647389 C35.0889665,33.647389 37,31.734846 37,29.3875655 L37,19.3236945 C37,16.9749045 35.0889665,15.0623614 32.7401764,15.0623614 L32.7401764,15.0623614 Z" fill="#000000"></path>
    </g>
</svg>