<?xml version="1.0" encoding="UTF-8"?>
<svg width="42px" height="42px" viewBox="0 0 42 42" version="1.1" xmlns="http://www.w3.org/2000/svg" xmlns:xlink="http://www.w3.org/1999/xlink">
    <title>Buttons / Secondary / Small / Icon</title>
    <defs>
        <path d="M5.74646857,0.597942857 C6.75766857,0.597942857 7.57504,1.41714286 7.57504,2.42651429 L7.57504,2.42651429 L7.57504,5.71794286 L9.66509714,5.71794286 C10.6744686,5.71794286 11.4936686,6.53714286 11.4936686,7.54651429 C11.4936686,8.55588571 10.6744686,9.37508571 9.66509714,9.37508571 L9.66509714,9.37508571 L7.57504,9.37508571 L7.57504,23.7714286 C7.57504,24.7808 6.75766857,25.6 5.74646857,25.6 C4.73709714,25.6 3.91789714,24.7808 3.91789714,23.7714286 L3.91789714,23.7714286 L3.91789714,9.37508571 L1.82784,9.37508571 C0.818468571,9.37508571 -0.000731428571,8.55588571 -0.000731428571,7.54651429 C-0.000731428571,6.53714286 0.818468571,5.71794286 1.82784,5.71794286 L1.82784,5.71794286 L3.91789714,5.71794286 L3.91789714,2.42651429 C3.91789714,1.41714286 4.73709714,0.597942857 5.74646857,0.597942857 Z M18.58944,0.59904 C19.60064,0.59904 20.4180114,1.41641143 20.4180114,2.42761143 L20.4180114,2.42761143 L20.4180114,15.3812114 L22.5080686,15.3812114 C23.51744,15.3812114 24.33664,16.2004114 24.33664,17.2097829 C24.33664,18.2191543 23.51744,19.0383543 22.5080686,19.0383543 L22.5080686,19.0383543 L20.4180114,19.0383543 L20.4180114,23.7706971 C20.4180114,24.7818971 19.60064,25.5992686 18.58944,25.5992686 C17.5800686,25.5992686 16.7608686,24.7818971 16.7608686,23.7706971 L16.7608686,23.7706971 L16.7608686,19.0383543 L14.6708114,19.0383543 C13.66144,19.0383543 12.84224,18.2191543 12.84224,17.2097829 C12.84224,16.2004114 13.66144,15.3812114 14.6708114,15.3812114 L14.6708114,15.3812114 L16.7608686,15.3812114 L16.7608686,2.42761143 C16.7608686,1.41641143 17.5800686,0.59904 18.58944,0.59904 Z" id="path-1"></path>
    </defs>
    <g id="Buttons-/-Secondary-/-Small-/-Icon" stroke="none" stroke-width="1" fill="none" fill-rule="evenodd">
        <g id="Glyphs-/-Icons-/-Buttons-/-Filters" transform="translate(6.812500, 6.812500)">
            <g id="Colors-/-Basic-/-Black" transform="translate(1.688889, 1.688889)">
                <mask id="mask-2" fill="white">
                    <use xlink:href="#path-1"></use>
                </mask>
                <use id="Mask" fill="#000000" xlink:href="#path-1"></use>
                <g mask="url(#mask-2)" fill="#000000" id="Rectangle">
                    <g transform="translate(-70.400000, -67.200000)">
                        <rect x="0" y="0" width="153.6" height="153.6"></rect>
                    </g>
                </g>
            </g>
        </g>
    </g>
</svg>