<?xml version="1.0" encoding="UTF-8"?>
<svg width="42px" height="42px" viewBox="0 0 42 42" version="1.1" xmlns="http://www.w3.org/2000/svg" xmlns:xlink="http://www.w3.org/1999/xlink">
    <title>Speakers</title>
    <g id="Speakers" stroke="none" stroke-width="1" fill="none" fill-rule="evenodd">
        <g id="Group" transform="translate(10.000000, 5.000000)" fill="#000000">
            <path d="M17.8333333,0 L4.07483333,0 C1.82808333,0 -1.61648472e-13,1.82783333 -1.61648472e-13,4.07458333 L-1.61648472e-13,27.9254167 C-1.61648472e-13,30.1721667 1.82808333,32 4.07483333,32 L17.8333333,32 C20.0800833,32 21.9081667,30.1721667 21.9081667,27.9254167 L21.9081667,4.07458333 C21.9081667,1.82783333 20.0800833,0 17.8333333,0 Z M19.8938333,27.9254167 C19.8938333,29.0615 18.9694167,29.9856667 17.8333333,29.9856667 L4.07483333,29.9856667 C2.93875,29.9856667 2.01433333,29.0615 2.01433333,27.9254167 L2.01433333,4.07458333 C2.01433333,2.9385 2.93875,2.01433333 4.07483333,2.01433333 L17.8333333,2.01433333 C18.9694167,2.01433333 19.8938333,2.93883333 19.8938333,4.07458333 L19.8938333,27.9254167 Z" id="Fill-1"></path>
            <path d="M10.9540833,13.4515 C6.64416667,13.4515 3.13766667,16.9576667 3.13766667,21.2679167 C3.13766667,25.5778333 6.64416667,29.084 10.9540833,29.084 C15.264,29.084 18.7701667,25.5778333 18.7701667,21.2679167 C18.7701667,16.9576667 15.264,13.4515 10.9540833,13.4515 Z M10.9540833,27.0696667 C7.75483333,27.0696667 5.152,24.4670833 5.152,21.2679167 C5.152,18.0686667 7.75483333,15.4658333 10.9540833,15.4658333 C14.1533333,15.4658333 16.7561667,18.0686667 16.7561667,21.2679167 C16.7561667,24.4670833 14.1533333,27.0696667 10.9540833,27.0696667 Z" id="Fill-4"></path>
            <path d="M10.9540833,17.8753333 C9.08366667,17.8753333 7.56183333,19.3971667 7.56183333,21.2679167 C7.56183333,23.1383333 9.08366667,24.6601667 10.9540833,24.6601667 C12.8245,24.6601667 14.3463333,23.1383333 14.3463333,21.2679167 C14.3463333,19.3971667 12.8245,17.8753333 10.9540833,17.8753333 Z M10.9540833,22.6458333 C10.1943333,22.6458333 9.57616667,22.0276667 9.57616667,21.2679167 C9.57616667,20.5078333 10.194,19.8896667 10.9540833,19.8896667 C11.7138333,19.8896667 12.332,20.5078333 12.332,21.2679167 C12.332,22.0276667 11.7138333,22.6458333 10.9540833,22.6458333 Z" id="Fill-5"></path>
            <path d="M10.9540833,10.9915 C12.8245,10.9915 14.3463333,9.46975 14.3463333,7.599 C14.3463333,5.7285 12.8245,4.20666667 10.9540833,4.20666667 C9.08366667,4.20666667 7.56183333,5.7285 7.56183333,7.599 C7.56183333,9.46975 9.08366667,10.9915 10.9540833,10.9915 Z M10.9540833,6.221 C11.7138333,6.221 12.332,6.83916667 12.332,7.59925 C12.332,8.35908333 11.7138333,8.97725 10.9540833,8.97725 C10.194,8.97725 9.57616667,8.35908333 9.57616667,7.59925 C9.57616667,6.83916667 10.1943333,6.221 10.9540833,6.221 Z" id="Fill-6"></path>
        </g>
    </g>
</svg>