<?xml version="1.0" encoding="UTF-8"?>
<svg width="42px" height="42px" viewBox="0 0 42 42" version="1.1" xmlns="http://www.w3.org/2000/svg" xmlns:xlink="http://www.w3.org/1999/xlink">
    <title>Temperature</title>
    <g id="Temperature" stroke="none" stroke-width="1" fill="none" fill-rule="evenodd">
        <path d="M24.7385925,28.2374169 C24.7385925,30.4246898 23.1304614,32.1998679 21.1463415,32.1998679 C19.1622215,32.1998679 17.5540905,30.4246898 17.5540905,28.2374169 C17.5540905,26.3209114 18.78743,24.721402 20.4278913,24.3555356 L20.4278913,15.0569838 C20.4278913,14.6171518 20.748799,14.2644936 21.1463415,14.2644936 C21.5438839,14.2644936 21.8647917,14.6171518 21.8647917,15.0569838 L21.8647917,24.3555356 C23.505253,24.721402 24.7385925,26.3209114 24.7385925,28.2374169 M21.1463415,33.4163404 C18.5503414,33.4163404 16.4369004,31.0850984 16.4369004,28.2202462 C16.4369004,26.3711024 17.3385554,24.6500778 18.7910222,23.7294684 C19.0137418,23.588141 19.1514447,23.3266192 19.1514447,23.0426435 L19.1514447,10.7841408 C19.1514447,9.57163074 20.0471127,8.58365961 21.1463415,8.58365961 C21.6803894,8.58365961 22.1797123,8.81084013 22.552109,9.22161423 C22.9316902,9.64031322 23.1412382,10.1963772 23.1412382,10.7841408 L23.1412382,23.0426435 C23.1412382,23.3266192 23.2789411,23.588141 23.5016607,23.7294684 C24.9541275,24.6500778 25.8557825,26.3711024 25.8557825,28.2202462 C25.8557825,31.0850984 23.7423415,33.4163404 21.1463415,33.4163404 M24.5781386,22.6028115 L24.5781386,10.7841408 C24.5781386,9.77371574 24.2189135,8.81876504 23.5663212,8.09891976 C22.9233083,7.38964102 22.0647603,7 21.1463415,7 C19.2544226,7 17.7145443,8.69724987 17.7145443,10.7841408 L17.7145443,22.6028115 C16.030976,23.8509835 15,25.96297 15,28.2202462 C15,31.9581584 17.7576514,35 21.1463415,35 C24.5350316,35 27.2926829,31.9581584 27.2926829,28.2202462 C27.2926829,25.96297 26.2617069,23.8509835 24.5781386,22.6028115" fill="#000000"></path>
    </g>
</svg>