<?xml version="1.0" encoding="UTF-8"?>
<svg width="42px" height="42px" viewBox="0 0 42 42" version="1.1" xmlns="http://www.w3.org/2000/svg" xmlns:xlink="http://www.w3.org/1999/xlink">
    <title>TV Box</title>
    <g id="TV-Box" stroke="none" stroke-width="1" fill="none" fill-rule="evenodd">
        <path d="M33.048026,30.7688238 C33.048026,32.025641 32.024013,33.048026 30.7688238,33.048026 L11.2328042,33.048026 C9.97598698,33.048026 8.95197395,32.025641 8.95197395,30.7688238 L8.95197395,11.2328042 C8.95197395,9.97598698 9.97598698,8.95360195 11.2328042,8.95360195 L30.7688238,8.95360195 C32.024013,8.95360195 33.048026,9.97598698 33.048026,11.2328042 L33.048026,30.7688238 Z M35,20.024013 L35,15.4656085 L35,13.5120065 L35,11.2328042 C35,8.8982499 33.1017501,7 30.7688238,7 L11.2328042,7 C8.8982499,7 7,8.8982499 7,11.2328042 L7,13.5120065 L7,15.4656085 L7,20.024013 L7,21.977615 L7,26.5360195 L7,28.4896215 L7,30.7688238 C7,33.1033781 8.8982499,35.001628 11.2328042,35.001628 L30.7688238,35.001628 C33.1017501,35.001628 35,33.1033781 35,30.7688238 L35,28.4896215 L35,26.5360195 L35,21.977615 L35,20.024013 Z M26.5360195,25.8848189 C26.5360195,26.2446072 26.2429792,26.5360195 25.8848189,26.5360195 L16.1168091,26.5360195 C15.7570208,26.5360195 15.4639805,26.2446072 15.4639805,25.8848189 L15.4639805,16.1168091 C15.4639805,15.7570208 15.7570208,15.4656085 16.1168091,15.4656085 L25.8848189,15.4656085 C26.2429792,15.4656085 26.5360195,15.7570208 26.5360195,16.1168091 L26.5360195,25.8848189 Z M25.8848189,13.5120065 L16.1168091,13.5120065 C14.6809117,13.5120065 13.5120065,14.6809117 13.5120065,16.1168091 L13.5120065,25.8848189 C13.5120065,27.3207163 14.6809117,28.4896215 16.1168091,28.4896215 L25.8848189,28.4896215 C27.3190883,28.4896215 28.4879935,27.3207163 28.4879935,25.8848189 L28.4879935,16.1168091 C28.4879935,14.6809117 27.3190883,13.5120065 25.8848189,13.5120065 L25.8848189,13.5120065 Z" id="Processor" fill="#000000"></path>
    </g>
</svg>