<?xml version="1.0" encoding="UTF-8"?>
<svg width="42px" height="42px" viewBox="0 0 42 42" version="1.1" xmlns="http://www.w3.org/2000/svg" xmlns:xlink="http://www.w3.org/1999/xlink">
    <title>TV</title>
    <g id="TV" stroke="none" stroke-width="1" fill="none" fill-rule="evenodd">
        <path d="M27.339717,34.9561321 C27.729434,35.3185849 27.7518868,35.9264151 27.389434,36.3161321 C27.2001887,36.5198113 26.9419811,36.6224528 26.6853774,36.6224528 C26.4496226,36.6224528 26.2154717,36.5374528 26.0310377,36.3658491 C23.295,33.8254717 18.7066038,33.8254717 15.970566,36.3658491 C15.5824528,36.7266981 14.9746226,36.7058491 14.610566,36.3161321 C14.249717,35.9264151 14.2721698,35.3185849 14.6618868,34.9561321 C16.3859434,33.3523585 18.6376415,32.470283 21,32.470283 C23.3639623,32.470283 25.6140566,33.3523585 27.339717,34.9561321 L27.339717,34.9561321 Z M36.0754717,26.3759434 C36.0754717,27.8113208 34.9095283,28.9772642 33.4741509,28.9772642 L8.52745283,28.9772642 C7.09207547,28.9772642 5.9245283,27.8113208 5.9245283,26.3759434 L5.9245283,10.5274528 C5.9245283,9.09207547 7.09207547,7.9245283 8.52745283,7.9245283 L33.4741509,7.9245283 C34.9095283,7.9245283 36.0754717,9.09207547 36.0754717,10.5274528 L36.0754717,26.3759434 Z M33.4741509,6 L8.52745283,6 C6.03037736,6 4,8.03037736 4,10.5274528 L4,26.3759434 C4,28.8730189 6.03037736,30.9033962 8.52745283,30.9033962 L33.4741509,30.9033962 C35.9696226,30.9033962 38,28.8730189 38,26.3759434 L38,10.5274528 C38,8.03037736 35.9696226,6 33.4741509,6 L33.4741509,6 Z" id="System" fill="#000000"></path>
    </g>
</svg>