<?xml version="1.0" encoding="UTF-8"?>
<svg width="42px" height="42px" viewBox="0 0 42 42" version="1.1" xmlns="http://www.w3.org/2000/svg" xmlns:xlink="http://www.w3.org/1999/xlink">
    <title>VacuumCleaner Android</title>
    <g id="VacuumCleaner-Android" stroke="none" stroke-width="1" fill="none" fill-rule="evenodd">
        <path d="M30.8915068,11.0537534 C28.2420822,8.40438356 24.7193973,6.94526027 20.9726027,6.94526027 C17.225589,6.94526027 13.7031233,8.40438356 11.0536986,11.0537534 C8.40432877,13.7031781 6.94520548,17.225863 6.94520548,20.9726575 C6.94520548,24.7194521 8.40432877,28.242137 11.0536986,30.8915616 C13.7031233,33.5409315 17.2258082,35.0000548 20.9726027,35.0000548 C24.7193973,35.0000548 28.2420822,33.5409315 30.8915068,30.8915616 C33.5408767,28.242137 35,24.7194521 35,20.9726575 C35,17.225863 33.5408767,13.7031781 30.8915068,11.0537534 Z M20.9726027,33.3367671 C14.1549589,33.3367671 8.60849315,27.7903014 8.60849315,20.9726575 C8.60849315,17.862411 9.76328767,15.0172055 11.665863,12.8420822 L12.8448219,14.0210411 C11.241863,15.8923836 10.272274,18.3210959 10.272274,20.9726575 C10.272274,26.8729315 15.0723288,31.6729863 20.9726027,31.6729863 C26.8728767,31.6729863 31.6729315,26.8729315 31.6729315,20.9726575 C31.6729315,18.3210959 30.7033425,15.8923836 29.1003836,14.0210411 L30.2793425,12.8420822 C32.1819178,15.0172055 33.3367123,17.862411 33.3367123,20.9726575 C33.3367123,27.7903014 27.7902466,33.3367671 20.9726027,33.3367671 Z M23.1592329,21.0206027 C23.1481096,21.2817534 23.1140822,21.5394521 23.0263014,21.7847123 C22.8521096,22.2712329 22.5081096,22.6993425 22.0588493,22.9572603 C21.3966027,23.337589 20.5310137,23.3339726 19.872,22.9484932 C19.0807123,22.4856986 18.7932603,21.6656986 18.7932603,20.7947945 C18.7932603,20.4874521 18.8131507,13.7573151 18.7992329,12.2003836 C19.495726,12.0278904 20.2234521,11.9356164 20.9726027,11.9356164 C21.7236712,11.9356164 22.4537534,12.0283288 23.1519452,12.2019178 C23.1519452,12.2019178 23.1724932,20.7132603 23.1592329,21.0206027 Z M17.1299178,21.0661918 C17.1494247,22.8592329 18.4492603,24.5394521 20.2557808,24.8386849 C22.1498082,25.1526575 23.9730411,24.1113425 24.6151781,22.2881644 C24.857863,21.5993973 24.8152877,20.8632877 24.8152877,20.145589 C24.8152877,19.1460274 24.8152877,18.1464658 24.8152877,17.1466849 C24.8152877,15.6978082 24.829863,14.2478904 24.8240548,12.7986301 C27.886137,14.2472877 30.0096438,17.3663014 30.0096438,20.9726575 C30.0096438,25.955726 25.9556712,30.0096986 20.9726027,30.0096986 C15.9895342,30.0096986 11.9355616,25.955726 11.9355616,20.9726575 C11.9355616,17.3628493 14.0631233,14.2412603 17.1299178,12.7945753 L17.1299178,16.2917808 C17.1299178,17.8829589 17.1126027,19.4752329 17.1299178,21.0661918 Z M27.9242192,12.8448767 C26.8778082,11.9484932 25.5104658,11.1563288 24.1431781,10.7517808 C23.146411,10.4568219 22.076,10.2723288 20.9726027,10.2723288 C18.3212603,10.2723288 15.8923288,11.2419178 14.0209863,12.8448767 L12.8420274,11.6659178 C15.0170959,9.76334247 17.8623562,8.60854795 20.9726027,8.60854795 C24.0826301,8.60854795 26.9281096,9.76334247 29.1031781,11.6659178 L27.9242192,12.8448767 Z" id="Fill-1" fill="#000000"></path>
    </g>
</svg>