<?xml version="1.0" encoding="UTF-8"?>
<svg width="42px" height="42px" viewBox="0 0 42 42" version="1.1" xmlns="http://www.w3.org/2000/svg" xmlns:xlink="http://www.w3.org/1999/xlink">
    <title>Сonditioner</title>
    <g id="Сonditioner" stroke="none" stroke-width="1" fill="none" fill-rule="evenodd">
        <path d="M35.1886792,18.4716981 C35.1886792,18.8037736 34.9169811,19.0754717 34.5849057,19.0754717 L7.41509434,19.0754717 C7.08301887,19.0754717 6.81132075,18.8037736 6.81132075,18.4716981 L6.81132075,9.41509434 C6.81132075,9.08301887 7.08301887,8.81132075 7.41509434,8.81132075 L34.5849057,8.81132075 C34.9169811,8.81132075 35.1886792,9.08301887 35.1886792,9.41509434 L35.1886792,18.4716981 Z M34.5849057,7 C35.9132075,7 37,8.08679245 37,9.41509434 L37,9.41509434 L37,18.4716981 C37,19.8 35.9132075,20.8867925 34.5849057,20.8867925 L34.5849057,20.8867925 L7.41509434,20.8867925 C6.08679245,20.8867925 5,19.8 5,18.4716981 L5,18.4716981 L5,9.41509434 C5,8.08679245 6.08679245,7 7.41509434,7 L7.41509434,7 Z M20.9995472,23.6037736 C21.4991698,23.6037736 21.9052075,24.0083019 21.9052075,24.509434 L21.9052075,33.5660377 C21.9052075,34.0671698 21.4991698,34.4716981 20.9995472,34.4716981 C20.4999245,34.4716981 20.0953962,34.0671698 20.0953962,33.5660377 L20.0953962,24.509434 C20.0953962,24.0083019 20.4999245,23.6037736 20.9995472,23.6037736 Z M27.0991698,23.6048302 C27.5987925,23.6048302 28.0048302,24.0078491 28.0048302,24.5089811 L28.0048302,25.1821887 C28.0048302,28.0350189 28.9784151,30.821434 30.6780377,32.8259623 C31.0010566,33.2078491 30.9723774,33.8010566 30.5904906,34.122566 C30.4138868,34.2735094 30.202566,34.3474717 29.9927547,34.3474717 C29.7482264,34.3474717 29.506717,34.2448302 29.3316226,34.0410566 C27.2953962,31.6350189 26.1935094,28.5044528 26.1935094,25.1821887 L26.1935094,24.5089811 C26.1935094,24.0078491 26.5995472,23.6048302 27.0991698,23.6048302 Z M14.9018868,23.6042264 C15.4015094,23.6042264 15.8060377,24.0102642 15.8060377,24.5098868 L15.8060377,25.1830943 C15.8060377,28.5038491 14.7056604,31.6344151 12.6679245,34.0389434 C12.4943396,34.2457358 12.2528302,34.3468679 12.0083019,34.3468679 C11.7984906,34.3468679 11.5856604,34.2713962 11.4090566,34.1234717 C11.0271698,33.8004528 11,33.2072453 11.3230189,32.8253585 C13.0211321,30.8193208 13.9962264,28.0359245 13.9962264,25.1830943 L13.9962264,24.5098868 C13.9962264,24.0102642 14.4022642,23.6042264 14.9018868,23.6042264 Z M32.2303396,14.8330566 C32.7284528,14.8330566 33.136,15.2421132 33.136,15.7402264 C33.136,16.2368302 32.7284528,16.6458868 32.2303396,16.6458868 L9.76996226,16.6458868 C9.27184906,16.6458868 8.86430189,16.2368302 8.86430189,15.7402264 C8.86430189,15.2421132 9.27184906,14.8330566 9.76996226,14.8330566 L32.2303396,14.8330566 Z" id="Ac" fill="#000000"></path>
    </g>
</svg>