<?xml version="1.0" encoding="UTF-8"?>
<svg width="42px" height="42px" viewBox="0 0 42 42" version="1.1" xmlns="http://www.w3.org/2000/svg" xmlns:xlink="http://www.w3.org/1999/xlink">
    <title>Bulb</title>
    <g id="Bulb" stroke="none" stroke-width="1" fill="none" fill-rule="evenodd">
        <path d="M24.6105137,17.2935086 C24.7841497,17.5754679 24.8000796,17.9259259 24.6519315,18.2238152 L21.8562326,23.8136201 C21.6889685,24.1481481 21.3512545,24.342493 21.0007965,24.342493 C20.8574273,24.342493 20.7124652,24.3090402 20.573875,24.2405416 C20.1023497,24.004779 19.9095978,23.4313023 20.1453604,22.958184 L22.2512943,18.7510952 L18.2050976,18.7510952 C17.8737555,18.7510952 17.5663082,18.5806452 17.3926722,18.2986858 C17.2174432,18.0167264 17.2031063,17.6646754 17.3512545,17.3683791 L20.1453604,11.7769813 C20.382716,11.305456 20.9545998,11.1142971 21.429311,11.3500597 C21.9008363,11.5858224 22.0935882,12.1592991 21.8562326,12.6324174 L19.7518917,16.8410992 L23.7964954,16.8410992 C24.1278375,16.8410992 24.4368777,17.0115492 24.6105137,17.2935086 L24.6105137,17.2935086 Z M25.4850657,28.8331342 C25.3735564,28.8538431 25.266826,28.8952609 25.1728395,28.9510155 C23.871366,29.4225408 22.4663481,29.6806053 21.0007965,29.6806053 C19.5368379,29.6806053 18.133413,29.4225408 16.8335325,28.9526085 C16.737953,28.8952609 16.6312226,28.8538431 16.5181203,28.8331342 C12.0657109,27.0792513 8.913182,22.79092 8.913182,17.7953007 C8.913182,11.2433294 14.3373158,5.90999602 21.0007965,5.90999602 C27.6674632,5.90999602 33.090004,11.2433294 33.090004,17.7953007 C33.090004,22.7925129 29.9374751,27.0792513 25.4850657,28.8331342 L25.4850657,28.8331342 Z M24.7060932,33.6216647 C24.7060932,34.8546396 23.700916,35.8598168 22.4663481,35.8598168 L19.5352449,35.8598168 C18.303863,35.8598168 17.2986858,34.8546396 17.2986858,33.6216647 L17.2986858,31.1015532 C18.477499,31.4201513 19.7200319,31.5921943 21.0007965,31.5921943 C22.2831541,31.5921943 23.524094,31.4201513 24.7060932,31.0999602 L24.7060932,33.6216647 Z M21.0007965,4 C13.2827559,4 7,10.1887694 7,17.7953007 C7,23.4360812 10.4536041,28.2962963 15.3870968,30.432497 L15.3870968,33.6216647 C15.3870968,35.9107925 17.2493031,37.7698128 19.5352449,37.7698128 L22.4663481,37.7698128 C24.7554759,37.7698128 26.6160892,35.9107925 26.6160892,33.6216647 L26.6160892,30.432497 C31.5463959,28.2962963 35,23.4360812 35,17.7953007 C35,10.1887694 28.7204301,4 21.0007965,4 L21.0007965,4 Z" id="Blub" fill="#000000"></path>
    </g>
</svg>