<?xml version="1.0" encoding="UTF-8"?>
<svg width="687px" height="436px" viewBox="0 0 687 436" version="1.1" xmlns="http://www.w3.org/2000/svg" xmlns:xlink="http://www.w3.org/1999/xlink">
    <title>Logo</title>
    <defs>
        <polygon id="path-1" points="0.276497659 0.361981555 59.3288027 0.361981555 59.3288027 92.5881038 0.276497659 92.5881038"></polygon>
        <polygon id="path-3" points="0.0369987578 1.48042105 94.6625888 1.48042105 94.6625888 95.4128842 0.0369987578 95.4128842"></polygon>
        <polygon id="path-5" points="0.721791572 1.48042105 95.2260668 1.48042105 95.2260668 95.4128842 0.721791572 95.4128842"></polygon>
        <polygon id="path-7" points="0.568132032 1.48042105 66.3556742 1.48042105 66.3556742 95.4133895 0.568132032 95.4133895"></polygon>
        <polygon id="path-9" points="0.390857143 1.47223149 8.14958385 1.47223149 8.14958385 95.9553253 0.390857143 95.9553253"></polygon>
    </defs>
    <g id="Logo" stroke="none" stroke-width="1" fill="none" fill-rule="evenodd">
        <g id="Group-3" transform="translate(145.739130, 240.588235) rotate(180.000000) translate(-145.739130, -240.588235) translate(116.000000, 194.000000)">
            <mask id="mask-2" fill="white">
                <use xlink:href="#path-1"></use>
            </mask>
            <g id="Clip-2"></g>
            <path d="M59.3298321,89.5179262 C59.3298321,90.3181856 59.0107084,91.0328826 58.3724609,91.6569843 C57.7290662,92.281086 56.9621398,92.5881038 56.051093,92.5881038 C55.1400462,92.5881038 54.3628254,92.281086 53.7297251,91.6569843 C53.0863304,91.0328826 52.7723538,90.3181856 52.7723538,89.5179262 L52.7723538,5.97386358 L3.01478528,5.97386358 C2.27874181,5.97386358 1.64564147,5.70711044 1.10004281,5.17360417 C0.54929699,4.63506482 0.276497659,3.96566544 0.276497659,3.16540603 C0.276497659,2.36514662 0.54929699,1.69574724 1.10004281,1.16224096 C1.64564147,0.623701613 2.27874181,0.361981555 3.01478528,0.361981555 L56.051093,0.361981555 C56.9621398,0.361981555 57.7290662,0.674032394 58.3724609,1.29310099 C59.0107084,1.92223575 59.3298321,2.63189976 59.3298321,3.43215917 L59.3298321,89.5179262 Z" id="Fill-1" fill="#211300" mask="url(#mask-2)"></path>
        </g>
        <g id="Group-6" transform="translate(232.124224, 242.000000) rotate(180.000000) translate(-232.124224, -242.000000) translate(183.975155, 194.000000)">
            <mask id="mask-4" fill="white">
                <use xlink:href="#path-3"></use>
            </mask>
            <g id="Clip-5"></g>
            <path d="M18.6174708,77.2284632 C26.513918,85.3278316 36.1133217,89.3749895 47.4207503,89.3749895 C58.6369491,89.3749895 68.1907379,85.3278316 76.0922534,77.2284632 C83.978564,69.1341474 87.9369242,59.4987789 87.9369242,48.3122526 C87.9369242,37.1307789 83.978564,27.5156211 76.0922534,19.4617263 C68.1907379,11.4128842 58.6369491,7.38593684 47.4207503,7.38593684 C36.1133217,7.38593684 26.513918,11.4128842 18.6174708,19.4617263 C10.710887,27.5156211 6.76773168,37.1307789 6.76773168,48.3122526 C6.76773168,59.4987789 10.710887,69.1341474 18.6174708,77.2284632 M13.9698186,15.2326737 C23.2549863,6.0672 34.4052969,1.47941053 47.4207503,1.47941053 C60.5223652,1.47941053 71.6726758,6.04698947 80.8666137,15.1669895 C90.0656199,24.2920421 94.6625888,35.3421474 94.6625888,48.3122526 C94.6625888,61.2823579 90.0453466,72.3779368 80.8057938,81.5939368 C71.5561043,90.8048842 60.4311354,95.4128842 47.4207503,95.4128842 C34.4052969,95.4128842 23.2549863,90.8048842 13.9698186,81.5939368 C4.68465093,72.3779368 0.0369987578,61.2823579 0.0369987578,48.3122526 C0.0369987578,35.4330947 4.68465093,24.4032 13.9698186,15.2326737" id="Fill-4" fill="#211300" mask="url(#mask-4)"></path>
        </g>
        <g id="Group-9" transform="translate(342.583851, 242.000000) rotate(180.000000) translate(-342.583851, -242.000000) translate(294.434783, 194.000000)">
            <mask id="mask-6" fill="white">
                <use xlink:href="#path-5"></use>
            </mask>
            <g id="Clip-8"></g>
            <path d="M19.2683189,77.2284632 C27.1597042,85.3278316 36.746801,89.3749895 48.0447947,89.3749895 C59.2364901,89.3749895 68.7881541,85.3278316 76.6795395,77.2284632 C84.5608012,69.1341474 88.5090248,59.4987789 88.5090248,48.3122526 C88.5090248,37.1307789 84.5608012,27.5156211 76.6795395,19.4617263 C68.7881541,11.4128842 59.2364901,7.38593684 48.0447947,7.38593684 C36.746801,7.38593684 27.1597042,11.4128842 19.2683189,19.4617263 C11.3819953,27.5156211 7.44389535,37.1307789 7.44389535,48.3122526 C7.44389535,59.4987789 11.3819953,69.1341474 19.2683189,77.2284632 M14.6367489,15.2326737 C23.9100125,6.0672 35.0460278,1.47941053 48.0447947,1.47941053 C61.1296127,1.47941053 72.2605662,6.04698947 81.4477788,15.1669895 C90.6349914,24.2920421 95.2260668,35.3421474 95.2260668,48.3122526 C95.2260668,61.2823579 90.6147441,72.3779368 81.381975,81.5939368 C72.149206,90.8048842 61.0384998,95.4128842 48.0447947,95.4128842 C35.0460278,95.4128842 23.9100125,90.8048842 14.6367489,81.5939368 C5.35842339,72.3779368 0.721791572,61.2823579 0.721791572,48.3122526 C0.721791572,35.4330947 5.35842339,24.4032 14.6367489,15.2326737" id="Fill-7" fill="#211300" mask="url(#mask-6)"></path>
        </g>
        <g id="Group-12" transform="translate(441.714286, 242.000000) rotate(180.000000) translate(-441.714286, -242.000000) translate(407.726708, 194.000000)">
            <mask id="mask-8" fill="white">
                <use xlink:href="#path-7"></use>
            </mask>
            <g id="Clip-11"></g>
            <path d="M43.498219,53.9464421 L1.25130033,6.57802105 C0.797593138,6.04749474 0.568132032,5.37549474 0.568132032,4.56707368 C0.568132032,3.75865263 0.865388465,3.04623158 1.45990133,2.41970526 C2.07005927,1.79317895 2.77930269,1.47991579 3.61370671,1.47991579 C4.90703295,1.47991579 6.15342396,2.15191579 7.34766471,3.49591579 L48.071796,49.5203368 L59.6960871,38.6521263 L59.6960871,4.56707368 C59.6960871,3.75865263 60.0298487,3.04623158 60.6765118,2.41970526 C61.3231749,1.79317895 62.1054287,1.47991579 63.0284881,1.47991579 C63.9515476,1.47991579 64.7390164,1.79317895 65.3804645,2.41970526 C66.0271276,3.04623158 66.3556742,3.75865263 66.3556742,4.56707368 L66.3556742,92.3262316 C66.3556742,93.1296 66.0271276,93.8470737 65.3804645,94.4736 C64.7390164,95.1001263 63.9515476,95.4133895 63.0284881,95.4133895 C62.1054287,95.4133895 61.3231749,95.1001263 60.6765118,94.4736 C60.0298487,93.8470737 59.6960871,93.1296 59.6960871,92.3262316 L59.6960871,46.5696 L9.98125241,94.2058105 C9.15206341,95.0091789 8.22900396,95.4133895 7.21207406,95.4133895 C6.38288506,95.4133895 5.66321159,95.1203368 5.06869873,94.5443368 C4.46897084,93.9582316 4.16649938,93.2205474 4.16649938,92.3262316 C4.16649938,91.5228632 4.53155114,90.7194947 5.27729973,89.9110737 L43.498219,53.9464421 Z" id="Fill-10" fill="#211300" mask="url(#mask-8)"></path>
        </g>
        <g id="Group-17" transform="translate(494.111801, 242.000000) rotate(180.000000) translate(-494.111801, -242.000000) translate(489.863354, 194.000000)">
            <mask id="mask-10" fill="white">
                <use xlink:href="#path-9"></use>
            </mask>
            <g id="Clip-16"></g>
            <path d="M6.24840373,62.9934189 C5.63768944,63.5210104 4.9048323,63.7923431 4.06045342,63.7923431 C3.21607453,63.7923431 2.48852795,63.5210104 1.87250311,62.9934189 C1.27240994,62.4608027 0.953776398,61.7925202 0.953776398,60.9935959 L0.953776398,4.27499847 C0.953776398,3.47607421 1.27240994,2.80779166 1.87250311,2.27517549 C2.48852795,1.74255932 3.21607453,1.47122655 4.06045342,1.47122655 C4.9048323,1.47122655 5.63768944,1.74255932 6.24840373,2.27517549 C6.85911801,2.80779166 7.16713043,3.47607421 7.16713043,4.27499847 L7.16713043,60.9935959 C7.16713043,61.7925202 6.85911801,62.4608027 6.24840373,62.9934189 M7.02374534,89.6845236 C7.77253416,90.3930036 8.14958385,91.2823721 8.14958385,92.3526291 C8.14958385,93.3324419 7.77253416,94.1765883 7.02374534,94.8850683 C6.26964596,95.5985729 5.32967702,95.9553253 4.19852795,95.9553253 C3.1682795,95.9553253 2.27610559,95.5985729 1.51669565,94.8850683 C0.773217391,94.1765883 0.390857143,93.3324419 0.390857143,92.3526291 C0.390857143,91.2823721 0.773217391,90.3930036 1.51669565,89.6845236 C2.27610559,88.9659942 3.1682795,88.6142666 4.19852795,88.6142666 C5.32967702,88.6142666 6.26964596,88.9659942 7.02374534,89.6845236" id="Fill-15" fill="#211300" mask="url(#mask-10)"></path>
        </g>
        <path d="M524.014788,261.490389 C524.014788,270.113957 525.959307,276.229518 529.843241,279.847542 C533.094313,282.905322 537.794843,284.434212 543.939726,284.434212 C552.166929,284.434212 558.265879,280.779536 562.236576,273.449241 C564.768023,268.537944 566.033747,263.302019 566.033747,257.736231 L566.033747,227.98047 C566.033747,227.142722 566.329763,226.45158 566.916691,225.891336 C567.503619,225.336328 568.202829,225.058824 569.019425,225.058824 C569.836021,225.058824 570.530128,225.336328 571.117056,225.891336 C571.709088,226.45158 572,227.142722 572,227.98047 L572,287.078354 C572,287.910866 571.709088,288.607244 571.117056,289.167488 C570.530128,289.71726 569.836021,290 569.019425,290 C568.202829,290 567.503619,289.71726 566.916691,289.167488 C566.329763,288.607244 566.033747,287.910866 566.033747,287.078354 L566.033747,276.093383 C561.608818,285.366206 553.92261,290 542.995537,290 C535.58493,290 529.756477,288.18837 525.505075,284.575582 C520.631019,280.125046 518.186335,272.941357 518.186335,263.019279 L518.186335,227.98047 C518.186335,227.142722 518.482351,226.45158 519.06928,225.891336 C519.656208,225.336328 520.355418,225.058824 521.16691,225.058824 C521.98861,225.058824 522.657198,225.336328 523.203296,225.891336 C523.744291,226.45158 524.014788,227.142722 524.014788,227.98047 L524.014788,261.490389 Z" id="Fill-18" fill="#211300" transform="translate(545.093168, 257.529412) rotate(180.000000) translate(-545.093168, -257.529412) "></path>
        <path d="M500.762788,171.411765 C502.092399,171.411765 503.165328,172.481649 503.165328,173.807487 C503.165328,180.743818 508.822591,186.390146 515.783796,186.390146 C517.113406,186.390146 518.186335,187.46003 518.186335,188.785868 C518.186335,190.106586 517.113406,191.176471 515.783796,191.176471 C506.17877,191.176471 498.360248,183.385255 498.360248,173.807487 C498.360248,172.481649 499.433178,171.411765 500.762788,171.411765" id="Fill-20" fill="#63BD5C" transform="translate(508.273292, 181.294118) rotate(180.000000) translate(-508.273292, -181.294118) "></path>
        <path d="M500.64181,160.117647 C501.907172,160.117647 502.928256,161.13557 502.928256,162.397015 C502.928256,175.751773 513.832848,186.622605 527.229081,186.622605 C528.494444,186.622605 529.515528,187.640528 529.515528,188.901973 C529.515528,190.158548 528.494444,191.176471 527.229081,191.176471 C511.311894,191.176471 498.360248,178.269793 498.360248,162.397015 C498.360248,161.13557 499.381333,160.117647 500.64181,160.117647" id="Fill-22" fill="#63BD5C" transform="translate(513.937888, 175.647059) rotate(180.000000) translate(-513.937888, -175.647059) "></path>
        <path d="M498.021451,146 C499.396073,146 500.514951,147.110103 500.514951,148.485781 C500.514951,170.841872 518.757998,189.03375 541.188846,189.03375 C542.55814,189.03375 543.677019,190.143853 543.677019,191.514219 C543.677019,192.889897 542.55814,194 541.188846,194 C516.008754,194 495.52795,173.577293 495.52795,148.485781 C495.52795,147.110103 496.641501,146 498.021451,146" id="Fill-24" fill="#63BD5C" transform="translate(519.602484, 170.000000) rotate(180.000000) translate(-519.602484, -170.000000) "></path>
    </g>
</svg>