<?xml version="1.0" encoding="UTF-8"?>
<svg width="600px" height="600px" viewBox="0 0 600 600" version="1.1" xmlns="http://www.w3.org/2000/svg" xmlns:xlink="http://www.w3.org/1999/xlink">
    <title>assets/icon</title>
    <defs>
        <polygon id="path-1" points="0.292869231 0.384605402 62.8416923 0.384605402 62.8416923 98.3748602 0.292869231 98.3748602"></polygon>
        <polygon id="path-3" points="0.0391894737 1.57294737 100.267611 1.57294737 100.267611 101.376189 0.0391894737 101.376189"></polygon>
        <polygon id="path-5" points="0.764529231 1.57294737 100.864452 1.57294737 100.864452 101.376189 0.764529231 101.376189"></polygon>
        <polygon id="path-7" points="0.601771429 1.57294737 70.2846286 1.57294737 70.2846286 101.376726 0.601771429 101.376726"></polygon>
        <polygon id="path-9" points="0.414 1.56424596 8.632125 1.56424596 8.632125 101.952533 0.414 101.952533"></polygon>
    </defs>
    <g id="/assets/icon" stroke="none" stroke-width="1" fill="none" fill-rule="evenodd">
        <g id="Group-27" transform="translate(54.000000, 223.000000)">
            <g id="Group-26" transform="translate(246.000000, 76.500000) rotate(180.000000) translate(-246.000000, -76.500000) ">
                <g id="Group-3" transform="translate(429.000000, 3.000000)">
                    <mask id="mask-2" fill="white">
                        <use xlink:href="#path-1"></use>
                    </mask>
                    <g id="Clip-2"></g>
                    <path d="M62.8427827,95.1127965 C62.8427827,95.9630722 62.5047635,96.7224378 61.828725,97.3855458 C61.1472346,98.0486539 60.3348981,98.3748602 59.3699077,98.3748602 C58.4049173,98.3748602 57.5816769,98.0486539 56.9110904,97.3855458 C56.2296,96.7224378 55.8970327,95.9630722 55.8970327,95.1127965 L55.8970327,6.34723006 L3.19329231,6.34723006 C2.41366731,6.34723006 1.74308077,6.06380485 1.16517692,5.49695443 C0.581821154,4.92475637 0.292869231,4.21351953 0.292869231,3.36324391 C0.292869231,2.51296828 0.581821154,1.80173144 1.16517692,1.23488102 C1.74308077,0.662682964 2.41366731,0.384605402 3.19329231,0.384605402 L59.3699077,0.384605402 C60.3348981,0.384605402 61.1472346,0.716159418 61.828725,1.37391981 C62.5047635,2.04237548 62.8427827,2.79639349 62.8427827,3.64666911 L62.8427827,95.1127965 Z" id="Fill-1" fill="#211300" mask="url(#mask-2)"></path>
                </g>
                <g id="Group-6" transform="translate(318.000000, 0.000000)">
                    <mask id="mask-4" fill="white">
                        <use xlink:href="#path-3"></use>
                    </mask>
                    <g id="Clip-5"></g>
                    <path d="M19.7198211,82.0552421 C28.0838211,90.6608211 38.2516105,94.9609263 50.2285579,94.9609263 C62.1088737,94.9609263 72.2283474,90.6608211 80.5977158,82.0552421 C88.9509789,73.4550316 93.1437158,63.2174526 93.1437158,51.3317684 C93.1437158,39.4514526 88.9509789,29.2353474 80.5977158,20.6780842 C72.2283474,12.1261895 62.1088737,7.84755789 50.2285579,7.84755789 C38.2516105,7.84755789 28.0838211,12.1261895 19.7198211,20.6780842 C11.3450842,29.2353474 7.16845263,39.4514526 7.16845263,51.3317684 C7.16845263,63.2174526 11.3450842,73.4550316 19.7198211,82.0552421 M14.7969789,16.1847158 C24.6319263,6.4464 36.4424526,1.57187368 50.2285579,1.57187368 C64.1059263,1.57187368 75.9164526,6.42492632 85.6547684,16.1149263 C95.3984526,25.8102947 100.267611,37.5510316 100.267611,51.3317684 C100.267611,65.1125053 95.3769789,76.9015579 85.5903474,86.6935579 C75.7929789,96.4801895 64.0092947,101.376189 50.2285579,101.376189 C36.4424526,101.376189 24.6319263,96.4801895 14.7969789,86.6935579 C4.96203158,76.9015579 0.0391894737,65.1125053 0.0391894737,51.3317684 C0.0391894737,37.6476632 4.96203158,25.9284 14.7969789,16.1847158" id="Fill-4" fill="#211300" mask="url(#mask-4)"></path>
                </g>
                <g id="Group-9" transform="translate(201.000000, 0.000000)">
                    <mask id="mask-6" fill="white">
                        <use xlink:href="#path-5"></use>
                    </mask>
                    <g id="Clip-8"></g>
                    <path d="M20.4092062,82.0552421 C28.7678446,90.6608211 38.9225985,94.9609263 50.8895523,94.9609263 C62.7439138,94.9609263 72.8611369,90.6608211 81.2197754,82.0552421 C89.5676908,73.4550316 93.7496908,63.2174526 93.7496908,51.3317684 C93.7496908,39.4514526 89.5676908,29.2353474 81.2197754,20.6780842 C72.8611369,12.1261895 62.7439138,7.84755789 50.8895523,7.84755789 C38.9225985,7.84755789 28.7678446,12.1261895 20.4092062,20.6780842 C12.0559292,29.2353474 7.88465231,39.4514526 7.88465231,51.3317684 C7.88465231,63.2174526 12.0559292,73.4550316 20.4092062,82.0552421 M15.5033985,16.1847158 C25.3257369,6.4464 37.1211215,1.57187368 50.8895523,1.57187368 C64.7491292,1.57187368 76.5391523,6.42492632 86.2703446,16.1149263 C96.0015369,25.8102947 100.864452,37.5510316 100.864452,51.3317684 C100.864452,65.1125053 95.9800908,76.9015579 86.2006446,86.6935579 C76.4211985,96.4801895 64.6526215,101.376189 50.8895523,101.376189 C37.1211215,101.376189 25.3257369,96.4801895 15.5033985,86.6935579 C5.67569846,76.9015579 0.764529231,65.1125053 0.764529231,51.3317684 C0.764529231,37.6476632 5.67569846,25.9284 15.5033985,16.1847158" id="Fill-7" fill="#211300" mask="url(#mask-6)"></path>
                </g>
                <g id="Group-12" transform="translate(111.000000, 0.000000)">
                    <mask id="mask-8" fill="white">
                        <use xlink:href="#path-7"></use>
                    </mask>
                    <g id="Clip-11"></g>
                    <path d="M46.0737714,57.3180947 L1.32539048,6.98914737 C0.844819048,6.42546316 0.601771429,5.71146316 0.601771429,4.85251579 C0.601771429,3.99356842 0.916628571,3.23662105 1.54634286,2.57093684 C2.19262857,1.90525263 2.94386667,1.57241053 3.82767619,1.57241053 C5.19758095,1.57241053 6.51777143,2.28641053 7.78272381,3.71441053 L50.9181524,52.6153579 L63.2307238,41.0678842 L63.2307238,4.85251579 C63.2307238,3.99356842 63.5842476,3.23662105 64.2692,2.57093684 C64.9541524,1.90525263 65.7827238,1.57241053 66.7604381,1.57241053 C67.7381524,1.57241053 68.5722476,1.90525263 69.2516762,2.57093684 C69.9366286,3.23662105 70.2846286,3.99356842 70.2846286,4.85251579 L70.2846286,98.0966211 C70.2846286,98.9502 69.9366286,99.7125158 69.2516762,100.3782 C68.5722476,101.043884 67.7381524,101.376726 66.7604381,101.376726 C65.7827238,101.376726 64.9541524,101.043884 64.2692,100.3782 C63.5842476,99.7125158 63.2307238,98.9502 63.2307238,98.0966211 L63.2307238,49.4802 L10.5722476,100.093674 C9.6939619,100.947253 8.71624762,101.376726 7.63910476,101.376726 C6.76081905,101.376726 5.99853333,101.065358 5.36881905,100.453358 C4.73358095,99.8306211 4.4132,99.0468316 4.4132,98.0966211 C4.4132,97.2430421 4.79986667,96.3894632 5.58977143,95.5305158 L46.0737714,57.3180947 Z" id="Fill-10" fill="#211300" mask="url(#mask-8)"></path>
                </g>
                <g id="Group-17" transform="translate(78.000000, 0.000000)">
                    <mask id="mask-10" fill="white">
                        <use xlink:href="#path-9"></use>
                    </mask>
                    <g id="Clip-16"></g>
                    <path d="M6.618375,66.9305076 C5.9715,67.4910735 5.19525,67.7793646 4.300875,67.7793646 C3.4065,67.7793646 2.635875,67.4910735 1.983375,66.9305076 C1.34775,66.3646029 1.01025,65.6545527 1.01025,64.8056957 L1.01025,4.54218587 C1.01025,3.69332885 1.34775,2.98327864 1.983375,2.41737396 C2.635875,1.85146928 3.4065,1.56317821 4.300875,1.56317821 C5.19525,1.56317821 5.9715,1.85146928 6.618375,2.41737396 C7.26525,2.98327864 7.5915,3.69332885 7.5915,4.54218587 L7.5915,64.8056957 C7.5915,65.6545527 7.26525,66.3646029 6.618375,66.9305076 M7.439625,95.2898063 C8.23275,96.0425663 8.632125,96.9875203 8.632125,98.1246684 C8.632125,99.1657195 8.23275,100.062625 7.439625,100.815385 C6.640875,101.573484 5.64525,101.952533 4.447125,101.952533 C3.355875,101.952533 2.410875,101.573484 1.6065,100.815385 C0.819,100.062625 0.414,99.1657195 0.414,98.1246684 C0.414,96.9875203 0.819,96.0425663 1.6065,95.2898063 C2.410875,94.5263689 3.355875,94.1526582 4.447125,94.1526582 C5.64525,94.1526582 6.640875,94.5263689 7.439625,95.2898063" id="Fill-15" fill="#211300" mask="url(#mask-10)"></path>
                </g>
                <path d="M6.17355842,38.7085383 C6.17355842,47.8710796 8.2332132,54.3688624 12.3471168,58.213013 C15.7906866,61.4619044 20.7695372,63.0863501 27.2782625,63.0863501 C35.9926024,63.0863501 42.4526745,59.2032573 46.6584788,51.414819 C49.3398141,46.1965653 50.6804818,40.6333951 50.6804818,34.7197452 L50.6804818,3.10424897 C50.6804818,2.21414174 50.994025,1.47980327 51.6157056,0.884544062 C52.2373862,0.294848021 52.977997,3.41060513e-13 53.8429439,3.41060513e-13 C54.7078907,3.41060513e-13 55.4430956,0.294848021 56.0647762,0.884544062 C56.6918627,1.47980327 57,2.21414174 57,3.10424897 L57,65.895751 C57,66.7802951 56.6918627,67.5201967 56.0647762,68.1154559 C55.4430956,68.6995888 54.7078907,69 53.8429439,69 C52.977997,69 52.2373862,68.6995888 51.6157056,68.1154559 C50.994025,67.5201967 50.6804818,66.7802951 50.6804818,65.895751 L50.6804818,54.2242199 C45.9935508,64.0765944 37.8522382,69 26.2781677,69 C18.4287747,69 12.2552162,67.0751431 7.75208649,63.2365557 C2.58943475,58.507861 0,50.8751915 0,40.332984 L0,3.10424897 C0,2.21414174 0.313543247,1.47980327 0.935223824,0.884544062 C1.5569044,0.294848021 2.29751517,3.41060513e-13 3.15705615,3.41060513e-13 C4.02740895,3.41060513e-13 4.73558422,0.294848021 5.31401745,0.884544062 C5.88704476,1.47980327 6.17355842,2.21414174 6.17355842,3.10424897 L6.17355842,38.7085383 Z" id="Fill-18" fill="#211300"></path>
                <path d="M59.5447954,105 C60.9531331,105 62.0895909,106.136752 62.0895909,107.545455 C62.0895909,114.915307 68.0818229,120.91453 75.4552046,120.91453 C76.8635422,120.91453 78,122.051282 78,123.459984 C78,124.863248 76.8635422,126 75.4552046,126 C65.2814604,126 57,117.721834 57,107.545455 C57,106.136752 58.1364578,105 59.5447954,105" id="Fill-20" fill="#63BD5C"></path>
                <path d="M47.4166536,105 C48.756939,105 49.838482,106.081543 49.838482,107.421828 C49.838482,121.611259 61.3887408,133.161518 75.5781716,133.161518 C76.918457,133.161518 78,134.243061 78,135.583346 C78,136.918457 76.918457,138 75.5781716,138 C58.7185197,138 45,124.286655 45,107.421828 C45,106.081543 46.081543,105 47.4166536,105" id="Fill-22" fill="#63BD5C"></path>
                <path d="M32.641142,102 C34.0971561,102 35.2822839,103.179484 35.2822839,104.641142 C35.2822839,128.394489 54.6055107,147.72336 78.3645015,147.72336 C79.8148722,147.72336 81,148.902844 81,150.358858 C81,151.820516 79.8148722,153 78.3645015,153 C51.6934824,153 30,131.300874 30,104.641142 C30,103.179484 31.1794843,102 32.641142,102" id="Fill-24" fill="#63BD5C"></path>
            </g>
        </g>
    </g>
</svg>